<svg xmlns="http://www.w3.org/2000/svg" xmlns:xlink="http://www.w3.org/1999/xlink" version="1.1" x="0px" y="0px" viewBox="0 0 100 100" style="enable-background:new 0 0 100 100;" xml:space="preserve"><path d="M9.1474657,37.9975357h59.9308739v3.0004311c0,2.2908249,1.8566437,4.1474648,4.1474686,4.1474648  s4.1474609-1.8566399,4.1474609-4.1474648v-3.0004311h13.4792633C93.143364,37.9975357,95,36.1408958,95,33.8500671  c0-2.2908249-1.856636-4.1474648-4.1474686-4.1474648H77.3732681v-3.3600941c0-2.2908268-1.856636-4.1474667-4.1474609-4.1474667  s-4.1474686,1.8566399-4.1474686,4.1474667v3.3600941H9.1474657C6.8566389,29.7026024,5,31.5592422,5,33.8500671  C5,36.1408958,6.8566389,37.9975357,9.1474657,37.9975357z"/><path d="M90.8525314,51.2694244H44.1935501v-1.7011108c0-2.2908249-1.8566399-4.1474648-4.1474686-4.1474648  c-2.2908249,0-4.1474648,1.8566399-4.1474648,4.1474648v1.7011108H9.1474657C6.8566389,51.2694244,5,53.1260605,5,55.4168892  c0,2.2908249,1.8566389,4.1474648,4.1474657,4.1474648h26.751152v4.6594162c0,2.2908325,1.8566399,4.1474686,4.1474648,4.1474686  c2.2908287,0,4.1474686-1.856636,4.1474686-4.1474686v-4.6594162h46.6589813C93.143364,59.5643539,95,57.7077141,95,55.4168892  C95,53.1260605,93.143364,51.2694244,90.8525314,51.2694244z"/><path d="M90.8525314,72.8362427H9.1474657C6.8566389,72.8362427,5,74.6928787,5,76.9837112  c0,2.2908249,1.8566389,4.1474609,4.1474657,4.1474609h81.7050629C93.143364,81.1311722,95,79.2745361,95,76.9837112  C95,74.6928787,93.143364,72.8362427,90.8525314,72.8362427z"/></svg>